<?xml version="1.0" encoding="iso-8859-1"?>
<!-- Generator: Adobe Illustrator 18.1.1, SVG Export Plug-In . SVG Version: 6.00 Build 0)  -->
<svg xmlns="http://www.w3.org/2000/svg" xmlns:xlink="http://www.w3.org/1999/xlink" version="1.1" id="Capa_1" x="0px" y="0px" viewBox="0 0 358.34 358.34" style="enable-background:new 0 0 358.34 358.34;" xml:space="preserve" width="512px" height="512px">
<g>
	<g>
		<path d="M266.803,30.986V0h-11.934v30.986H101.777V0H89.843v30.986H15.49V358.34h327.36V30.986H266.803z     M89.843,42.92v19.732h11.934V42.92h153.086v19.732h11.934V42.92h64.114v57.527H27.424V42.92H89.843z M27.424,346.407V112.374    h303.493v234.027H27.424V346.407z" fill="#FFFFFF"/>
		<path d="M117.971,264.416l9.362-8.64c24.679-23.772,40.342-41.249,40.342-62.867    c0-16.749-10.615-34.035-35.837-34.035c-13.503,0-25.031,5.042-33.14,11.892l5.042,11.158c5.406-4.499,14.231-9.899,24.858-9.899    c17.465,0,23.229,10.985,23.229,22.877c-0.179,17.638-13.688,32.776-43.582,61.22l-12.429,12.071v9.72h74.753v-13.139h-52.592    v-0.358H117.971z" fill="#FFFFFF"/>
		<path d="M234.719,214.724v-0.364c14.398-5.221,21.612-15.484,21.612-27.555    c0-14.225-10.454-27.919-33.51-27.919c-12.596,0-24.488,4.499-30.604,9.004l4.135,11.528c5.042-3.592,14.046-7.745,23.42-7.745    c14.577,0,20.532,8.282,20.532,17.656c0,13.873-14.589,19.81-26.117,19.81h-8.825v11.88h8.825c15.311,0,30.073,7.023,30.252,23.42    c0.173,9.72-6.116,22.686-26.469,22.686c-10.985,0-21.439-4.499-25.938-7.375l-4.314,12.244    c5.764,3.783,17.292,7.918,30.425,7.918c28.098,0,42.687-16.379,42.687-35.121C260.836,228.406,249.117,217.594,234.719,214.724z" fill="#FFFFFF"/>
	</g>
</g>
<g>
</g>
<g>
</g>
<g>
</g>
<g>
</g>
<g>
</g>
<g>
</g>
<g>
</g>
<g>
</g>
<g>
</g>
<g>
</g>
<g>
</g>
<g>
</g>
<g>
</g>
<g>
</g>
<g>
</g>
</svg>
