<?xml version="1.0" encoding="iso-8859-1"?>
<!-- Generator: Adobe Illustrator 18.0.0, SVG Export Plug-In . SVG Version: 6.00 Build 0)  -->
<!DOCTYPE svg PUBLIC "-//W3C//DTD SVG 1.1//EN" "http://www.w3.org/Graphics/SVG/1.1/DTD/svg11.dtd">
<svg xmlns="http://www.w3.org/2000/svg" xmlns:xlink="http://www.w3.org/1999/xlink" version="1.1" id="Capa_1" x="0px" y="0px" viewBox="0 0 394.481 394.481" style="enable-background:new 0 0 394.481 394.481;" xml:space="preserve" width="512px" height="512px">
<g>
	<path d="M288.085,60.518V21.826C288.085,9.791,278.294,0,266.26,0h-138.04c-12.035,0-21.826,9.791-21.826,21.826v38.693   c-26.174,3.619-46.398,26.124-46.398,53.277v24.198v173.991v28.698c0,29.665,24.134,53.798,53.798,53.798h166.891   c29.664,0,53.798-24.134,53.798-53.798v-28.698V137.994v-24.198C334.484,86.642,314.259,64.137,288.085,60.518z M118.395,54.398   h157.69v5.599h-157.69V54.398z M128.221,12h138.04c5.418,0,9.825,4.408,9.825,9.826v20.572h-157.69V21.826   C118.395,16.408,122.803,12,128.221,12z M113.795,71.997h166.891c23.048,0,41.798,18.75,41.798,41.798v18.198H71.997v-18.198   C71.997,90.748,90.748,71.997,113.795,71.997z M322.484,305.985H71.997V143.994h250.487V305.985z M280.686,382.481H113.795   c-23.048,0-41.798-18.75-41.798-41.798v-22.698h250.487v22.698C322.484,363.73,303.734,382.481,280.686,382.481z" fill="#FFFFFF"/>
	<path d="M147.248,293.609l79.88,0.074c0.011,0,0.021,0,0.03,0c13.221,0,25.063-7.876,30.175-20.07   c1.319-3.147,2.136-6.467,2.426-9.868l5.18-60.732c3.188-22.997-12.868-44.338-35.869-47.623l-5.058-0.72   c-16.603-2.375-32.292,9.165-34.981,25.72c-1.315,8.117,0.695,16.306,5.659,23.059c4.994,6.793,12.594,11.393,20.88,12.646   c0.322,0.069,0.875,0.179,1.607,0.295l-4.876,16.506c-4.738-4.781-10.979-8.036-17.84-9.016   c-6.496-0.927-12.984,0.181-18.714,3.131c-6.195-5.209-13.889-8.312-22.124-8.848c-18.581-1.212-35.629,11.59-39.649,29.775   c-1.744,7.906-0.967,16.006,2.164,23.308C116.817,272.829,125.41,293.609,147.248,293.609z M125.691,250.524   c2.631-11.907,13.42-20.442,25.487-20.442c0.552,0,1.107,0.018,1.664,0.054c6.825,0.444,13.104,3.449,17.68,8.459   c2.075,2.271,5.53,2.605,8.002,0.775c4.118-3.052,9.175-4.337,14.24-3.611c7.406,1.058,13.418,6.141,15.693,13.265   c0.661,2.072,2.393,3.624,4.524,4.056l0.149,0.03c3.041,0.621,6.064-1.196,6.945-4.181l10.761-36.43   c0.001-0.003,0.002-0.007,0.004-0.011l2.377-8.05c0.938-3.178-0.878-6.515-4.056-7.454c-3.177-0.938-6.516,0.876-7.454,4.055   l-1.091,3.695c-1.541-0.154-3.957-0.621-4.374-0.709c-4.716-1-8.996-3.753-11.885-7.685c-3.041-4.137-4.277-9.12-3.482-14.03   c1.648-10.145,11.266-17.214,21.441-15.762l5.058,0.72c16.506,2.357,28.017,17.709,25.659,34.222   c-0.017,0.112-0.029,0.225-0.039,0.338l-5.193,60.896c-0.184,2.153-0.7,4.255-1.535,6.248c-3.237,7.723-10.735,12.71-19.108,12.71   c-0.006,0-0.013,0-0.019,0l-79.879-0.074c-12.579,0-18.986-12.806-19.274-13.362C125.172,262.808,124.355,256.585,125.691,250.524z   " fill="#FFFFFF"/>
</g>
<g>
</g>
<g>
</g>
<g>
</g>
<g>
</g>
<g>
</g>
<g>
</g>
<g>
</g>
<g>
</g>
<g>
</g>
<g>
</g>
<g>
</g>
<g>
</g>
<g>
</g>
<g>
</g>
<g>
</g>
</svg>
