<?xml version="1.0" encoding="iso-8859-1"?>
<!-- Generator: Adobe Illustrator 18.0.0, SVG Export Plug-In . SVG Version: 6.00 Build 0)  -->
<!DOCTYPE svg PUBLIC "-//W3C//DTD SVG 1.1//EN" "http://www.w3.org/Graphics/SVG/1.1/DTD/svg11.dtd">
<svg xmlns="http://www.w3.org/2000/svg" xmlns:xlink="http://www.w3.org/1999/xlink" version="1.1" id="Capa_1" x="0px" y="0px" viewBox="0 0 60.334 60.334" style="enable-background:new 0 0 60.334 60.334;" xml:space="preserve" width="512px" height="512px">
<path d="M51.334,0H9C4.037,0,0,4.038,0,9v42.333c0,4.962,4.037,9,9,9h42.334c4.963,0,9-4.038,9-9V9C60.334,4.038,56.297,0,51.334,0z   M11.741,2h36.852v28.481c0,2.033-1.653,3.686-3.686,3.686h-29.48c-2.032,0-3.686-1.653-3.686-3.686V2z M58.334,51.334  c0,3.86-3.141,7-7,7H9c-3.859,0-7-3.14-7-7V9c0-3.86,3.141-7,7-7h0.741v28.481c0,3.135,2.551,5.686,5.686,5.686h29.48  c3.135,0,5.686-2.551,5.686-5.686V2h0.741c3.859,0,7,3.14,7,7V51.334z M18.75,28.167h9.75c0.553,0,1-0.448,1-1V9  c0-0.552-0.447-1-1-1h-9.75c-0.553,0-1,0.448-1,1v18.167C17.75,27.719,18.197,28.167,18.75,28.167z M19.75,10h7.75v16.167h-7.75V10z  " fill="#FFFFFF"/>
<g>
</g>
<g>
</g>
<g>
</g>
<g>
</g>
<g>
</g>
<g>
</g>
<g>
</g>
<g>
</g>
<g>
</g>
<g>
</g>
<g>
</g>
<g>
</g>
<g>
</g>
<g>
</g>
<g>
</g>
</svg>
